<?xml version="1.0" standalone="no"?>
<!DOCTYPE svg PUBLIC "-//W3C//DTD SVG 20010904//EN"
 "http://www.w3.org/TR/2001/REC-SVG-20010904/DTD/svg10.dtd">
<svg version="1.0" xmlns="http://www.w3.org/2000/svg"
 width="420.000000pt" height="594.000000pt" viewBox="0 0 420.000000 594.000000"
 preserveAspectRatio="xMidYMid meet">

<g transform="translate(0.000000,594.000000) scale(0.100000,-0.100000)"
fill="#000000" stroke="none">
<path d="M2005 4323 c-250 -32 -436 -101 -636 -235 -320 -213 -541 -565 -598
-948 -27 -179 -23 -315 15 -499 41 -200 135 -400 267 -571 141 -181 370 -355
567 -430 30 -11 64 -25 75 -30 88 -41 385 -85 515 -76 286 21 504 94 729 243
115 76 293 254 363 363 102 156 103 159 103 295 0 116 -1 122 -34 187 -47 94
-117 163 -210 206 -70 32 -83 35 -171 35 -84 0 -107 -4 -193 -36 -216 -79
-380 -220 -486 -419 -49 -92 -71 -157 -111 -333 -41 -180 -41 -178 -50 -169
-4 5 -18 50 -29 99 -45 187 -75 292 -102 350 -68 148 -187 289 -311 371 -137
89 -179 104 -488 175 -52 12 -98 25 -102 28 -5 4 65 24 155 45 89 21 171 41
182 46 11 5 38 14 60 21 103 30 237 117 332 216 71 73 106 121 150 208 45 88
50 100 78 215 14 58 30 119 35 135 5 17 14 56 21 88 7 32 16 60 19 62 4 3 19
-48 34 -113 79 -341 129 -451 274 -600 115 -117 283 -211 434 -243 59 -13 204
-7 234 9 10 6 37 19 59 29 58 25 156 127 188 195 54 114 53 260 -3 371 -95
190 -315 414 -526 534 -89 50 -248 116 -334 137 -157 38 -379 55 -505 39z"/>
</g>
</svg>
